<?xml version="1.0" encoding="utf-8"?>
<!-- Generator: Adobe Illustrator 27.5.0, SVG Export Plug-In . SVG Version: 6.00 Build 0)  -->
<svg version="1.1" id="Capa_1" xmlns="http://www.w3.org/2000/svg" xmlns:xlink="http://www.w3.org/1999/xlink" x="0px" y="0px"
	 viewBox="0 0 2773.83 341.25" style="enable-background:new 0 0 2773.83 341.25;" xml:space="preserve">
<style type="text/css">
	.st0{fill:#19322F;}
	.st1{fill:#FFFFFF;}
	.st2{fill:#FFF36E;}
	.st3{fill-rule:evenodd;clip-rule:evenodd;fill:#FFFFFF;}
	.st4{fill:none;stroke:#FFFFFF;stroke-width:0.5;stroke-linecap:round;stroke-linejoin:round;stroke-miterlimit:10;}
</style>
<g>
	<path class="st1" d="M1011.23,189.14c0,3.06-0.48,5.87-1.43,8.45c-0.95,2.59-2.33,4.81-4.14,6.66c-1.8,1.86-3.97,3.29-6.46,4.28
		c-2.52,0.98-5.33,1.47-8.46,1.47c-3.12,0-5.91-0.49-8.39-1.49c-2.48-1-4.63-2.44-6.45-4.3c-1.82-1.87-3.2-4.08-4.14-6.63
		c-0.93-2.53-1.4-5.35-1.4-8.43c0-3.12,0.47-5.97,1.42-8.54c0.95-2.59,2.32-4.78,4.1-6.61c1.78-1.84,3.93-3.25,6.46-4.24
		c2.53-0.98,5.33-1.47,8.39-1.47c3.1,0,5.92,0.49,8.46,1.49c2.53,1,4.69,2.43,6.51,4.29c1.79,1.86,3.17,4.06,4.1,6.62
		C1010.76,183.23,1011.23,186.05,1011.23,189.14 M1000.93,189.14c0-4.18-0.92-7.45-2.77-9.78c-1.84-2.33-4.31-3.5-7.42-3.5
		c-2.01,0-3.78,0.53-5.31,1.55c-1.52,1.05-2.7,2.59-3.53,4.62c-0.83,2.02-1.24,4.39-1.24,7.1c0,2.68,0.4,5.02,1.22,7.03
		c0.82,2.01,1.99,3.54,3.49,4.61c1.52,1.06,3.31,1.6,5.37,1.6c3.1,0,5.58-1.17,7.42-3.52
		C1000.01,196.52,1000.93,193.27,1000.93,189.14"/>
	<path class="st1" d="M1048.51,205.31l-7.9-12.99c-0.6-0.98-1.94-1.15-2.78-0.37l-2.54,2.4c-0.9,0.85-1.4,2.04-1.4,3.25v6.23
		c0,1.99-0.52,3.51-1.56,4.57c-1.04,1.06-2.24,1.59-3.59,1.59c-1.58,0-2.82-0.52-3.72-1.58c-0.91-1.05-1.36-2.6-1.36-4.67V160
		c0-2.29,0.44-4.02,1.32-5.22c0.87-1.19,2.13-1.78,3.76-1.78c1.58,0,2.83,0.54,3.76,1.62c0.93,1.08,1.39,2.67,1.39,4.77v21.7
		c0,1.15,1.41,1.72,2.21,0.88l9.34-9.79c1.42-1.51,2.52-2.53,3.28-3.08c0.75-0.55,1.67-0.83,2.74-0.83c1.29,0,2.34,0.4,3.19,1.23
		c0.85,0.81,1.29,1.83,1.29,3.06c0,1.51-1.4,3.51-4.18,6.01l-3.84,3.52c-0.93,0.86-1.11,2.27-0.43,3.33l9.36,14.7
		c0.78,1.22,1.33,2.15,1.68,2.79c0.33,0.64,0.5,1.24,0.5,1.83c0,1.63-0.45,2.91-1.34,3.85c-0.89,0.94-2.06,1.4-3.51,1.4
		c-1.26,0-2.22-0.34-2.9-1.01C1050.58,208.32,1049.67,207.08,1048.51,205.31"/>
	<path class="st1" d="M1158.59,189.14c0,3.06-0.47,5.87-1.43,8.45c-0.95,2.59-2.33,4.81-4.14,6.66c-1.8,1.86-3.95,3.29-6.46,4.28
		c-2.51,0.98-5.33,1.47-8.46,1.47c-3.12,0-5.9-0.49-8.39-1.49c-2.48-1-4.63-2.44-6.44-4.3c-1.82-1.87-3.21-4.08-4.14-6.63
		c-0.94-2.53-1.41-5.35-1.41-8.43c0-3.12,0.47-5.97,1.42-8.54c0.96-2.59,2.32-4.78,4.1-6.61c1.78-1.84,3.93-3.25,6.46-4.24
		c2.53-0.98,5.33-1.47,8.39-1.47c3.1,0,5.92,0.49,8.46,1.49c2.53,1,4.7,2.43,6.51,4.29c1.8,1.86,3.17,4.06,4.11,6.62
		C1158.12,183.23,1158.59,186.05,1158.59,189.14 M1148.29,189.14c0-4.18-0.92-7.45-2.76-9.78c-1.84-2.33-4.32-3.5-7.43-3.5
		c-2.01,0-3.77,0.53-5.3,1.55c-1.53,1.05-2.71,2.59-3.54,4.62c-0.83,2.02-1.24,4.39-1.24,7.1c0,2.68,0.41,5.02,1.23,7.03
		c0.82,2.01,1.98,3.54,3.5,4.61c1.52,1.06,3.3,1.6,5.36,1.6c3.1,0,5.59-1.17,7.43-3.52
		C1147.37,196.52,1148.29,193.27,1148.29,189.14"/>
	<path class="st1" d="M1177.89,203.58c0,4.04-3.26,7.3-7.3,7.3c-4.02,0-7.3-3.26-7.3-7.3c0-4.03,3.28-7.3,7.3-7.3
		C1174.63,196.27,1177.89,199.54,1177.89,203.58"/>
	<path class="st1" d="M997.9,152.75c0,4.02-3.26,7.29-7.3,7.29c-4.02,0-7.3-3.26-7.3-7.29c0-4.03,3.28-7.3,7.3-7.3
		C994.63,145.45,997.9,148.71,997.9,152.75"/>
	<path class="st1" d="M1104.86,169.59c-0.93-1.01-2.15-1.53-3.68-1.53c-1.56,0-2.81,0.52-3.76,1.55c-0.95,1.02-1.42,2.56-1.42,4.57
		v16.44c0,2.38-0.21,4.38-0.61,6c-0.4,1.61-1.12,2.89-2.16,3.79c-1.05,0.92-2.45,1.38-4.23,1.38c-0.92,0-1.81-0.16-2.67-0.44
		c-0.41-0.21-0.79-0.45-1.13-0.75c-1.04-0.92-1.77-2.17-2.16-3.79c-0.4-1.62-0.61-3.62-0.61-6V174.4c0-2.04-0.47-3.56-1.42-4.59
		c-0.95-1.02-2.21-1.54-3.76-1.54c-1.53,0-2.76,0.51-3.69,1.52c-0.92,1.01-1.39,2.55-1.39,4.61v20.35c0,4.08,0.64,7.21,1.92,9.39
		c1.08,1.81,2.6,3.22,4.58,4.24c0.84,0.45,1.95,0.82,3.13,1.1c0.08,0.05,0.17,0.08,0.27,0.1c2.11,0.56,4.33,0.85,6.53,0.94
		c5.83,0.24,12.58-1.16,15.76-6.59c1.26-2.18,1.91-5.32,1.91-9.4v-20.35C1106.25,172.14,1105.79,170.62,1104.86,169.59"/>
</g>
<g>
	<path class="st1" d="M291.55,298.71c-66.24,0-133.74-60.84-133.74-120.54c0-59.7,67.5-120.55,133.74-120.55
		c61.21,0,107.36,51.82,107.36,120.55C398.92,246.89,352.76,298.71,291.55,298.71 M291.55,60.09
		c-65.02,0-131.27,59.58-131.27,118.08c0,58.49,66.25,118.08,131.27,118.08c59.8,0,104.89-50.77,104.89-118.08
		S351.35,60.09,291.55,60.09"/>
	<path class="st1" d="M403.74,156.17c0.91-0.9,2.02-1.37,3.3-1.37c1.28,0,2.39,0.47,3.3,1.37c0.91,0.91,1.37,2.02,1.37,3.3
		c0,1.3-0.46,2.4-1.37,3.31c-0.91,0.88-2.02,1.34-3.3,1.34c-1.29,0-2.38-0.46-3.29-1.35c-0.91-0.91-1.37-2-1.37-3.3
		C402.39,158.19,402.84,157.08,403.74,156.17 M404.32,162.21c0.76,0.75,1.66,1.12,2.72,1.12c1.06,0,1.97-0.37,2.73-1.12
		c0.76-0.76,1.12-1.69,1.12-2.73c0-1.06-0.36-1.96-1.12-2.72c-0.76-0.77-1.67-1.14-2.73-1.14c-1.06,0-1.96,0.37-2.72,1.14
		c-0.75,0.76-1.13,1.66-1.13,2.72C403.19,160.52,403.57,161.45,404.32,162.21 M407.02,160.11h-0.68v1.44c0,0.4-0.1,0.5-0.48,0.5
		h-0.14c-0.4,0-0.5-0.1-0.5-0.5v-3.2c0-0.99,0.44-1.42,1.44-1.42h0.62c1.2,0,1.81,0.57,1.81,1.59c0,0.77-0.32,1.27-0.99,1.51
		l0.8,1.55c0.19,0.37,0.12,0.48-0.3,0.48h-0.15c-0.43,0-0.58-0.1-0.77-0.5L407.02,160.11z M406.82,157.9c-0.3,0-0.47,0.17-0.47,0.47
		v0.8h0.86c0.54,0,0.75-0.18,0.75-0.62c0-0.46-0.18-0.65-0.69-0.65H406.82z"/>
	<path class="st1" d="M222.06,164.84c-8.6,0-12.98,4.18-12.98,12.41v26.42c0,1.74,0.55,2.28,2.29,2.28H212
		c1.8,0,2.29-0.48,2.29-2.28v-11.76c1.74,2.12,4.57,3.17,8.46,3.17c8.16,0,12.3-4.21,12.3-12.52v-5.32
		C235.05,168.9,230.8,164.84,222.06,164.84 M229.79,182.61c0,5.53-2.03,7.49-7.73,7.49c-5.74,0-7.77-1.96-7.77-7.49v-5.32
		c0-5.52,2.03-7.48,7.77-7.48c5.77,0,7.73,1.88,7.73,7.48V182.61z M252.43,164.95c-0.5-0.06-1.15-0.12-1.87-0.12
		c-6.81,0-10.25,3.49-10.25,10.36v17.04c0,1.72,0.56,2.29,2.29,2.29h0.63c1.8,0,2.29-0.5,2.29-2.29v-16.82
		c0-4.09,1.36-5.59,5.04-5.59c0.41,0,0.88,0.03,1.43,0.09l0.25,0.01c0.34,0.06,0.58,0.07,0.8,0.07c1.5,0,1.5-1.31,1.5-2v-0.58
		C254.54,165.71,254.05,165.14,252.43,164.95 M268.55,164.84c-8.29,0-12.52,4.22-12.52,12.52v5.32c0,8.59,4.22,12.41,13.67,12.41
		c2.85,0,5.54-0.37,7.96-1.1c1.65-0.5,2.1-1.04,2.1-2.5v-0.51c0-0.51,0-2.1-1.49-2.1c-0.26,0-0.57,0.06-0.92,0.16
		c-2.6,0.73-5.11,1.07-7.65,1.07c-6.09,0-8.47-1.91-8.47-6.81v-1.26h16.81c1.75,0,2.32-0.48,2.53-2.15
		c0.12-0.76,0.17-1.82,0.17-3.17C280.74,169.06,276.42,164.84,268.55,164.84 M275.76,177.53h-14.53v-1.43
		c0-4.38,2.38-6.51,7.27-6.51c4.88,0,7.26,2.13,7.26,6.51V177.53z M314.93,164.84c-4.21,0-7.16,1.4-8.79,4.19
		c-1.55-2.79-4.48-4.19-8.76-4.19c-7.55,0-11.38,3.75-11.38,11.14v16.25c0,1.72,0.54,2.29,2.29,2.29h0.63c1.8,0,2.28-0.5,2.28-2.29
		v-16.25c0-4.5,1.66-6.16,6.18-6.16c4.5,0,6.16,1.67,6.16,6.16v16.25c0,1.8,0.5,2.29,2.31,2.29h0.57c1.78,0,2.28-0.5,2.28-2.29
		v-16.25c0-4.54,1.64-6.16,6.24-6.16c4.51,0,6.12,1.62,6.12,6.16v16.25c0,1.8,0.48,2.29,2.28,2.29h0.64c1.72,0,2.29-0.57,2.29-2.29
		v-16.25C326.27,168.49,322.56,164.84,314.93,164.84 M344.04,164.84c-8.31,0-12.53,4.22-12.53,12.52v5.32
		c0,8.59,4.22,12.41,13.68,12.41c2.85,0,5.52-0.37,7.94-1.1c1.67-0.5,2.1-1.04,2.1-2.5v-0.51c0-0.51,0-2.1-1.47-2.1
		c-0.26,0-0.58,0.06-0.93,0.16c-2.6,0.73-5.1,1.07-7.64,1.07c-6.1,0-8.47-1.91-8.47-6.81v-1.26h16.81c1.74,0,2.31-0.48,2.51-2.15
		c0.12-0.76,0.17-1.82,0.17-3.17C356.22,169.06,351.9,164.84,344.04,164.84 M351.26,177.53h-14.53v-1.43c0-4.38,2.37-6.51,7.26-6.51
		c4.88,0,7.27,2.13,7.27,6.51V177.53z M384.76,192.05l-5.72-9.27c-1.27-2.04-1.93-3.01-2.79-3.61c0.86-0.58,1.5-1.59,2.79-3.75
		l4.57-7.54c0.5-0.83,0.73-1.42,0.47-1.9c-0.26-0.48-0.9-0.57-1.82-0.57h-0.69c-1.88,0-2.7,0.47-3.49,2l-4.47,7.55
		c-0.89,1.61-1.27,1.75-2,1.75s-1.11-0.15-2-1.77l-4.45-7.54c-0.8-1.53-1.62-2-3.5-2h-0.67c-0.93,0-1.56,0.09-1.82,0.57
		c-0.28,0.48-0.04,1.07,0.45,1.9c0,0,3.26,5.37,4.19,6.91c0.95,1.55,3.14,3.29,5.71,3.75l0.53,0.09c0.44,0.07,0.79,0.13,0.79,0.54
		c0,0.41-0.35,0.47-0.79,0.54l-0.53,0.09c-3.18,0.58-5.29,3.01-6.48,4.95l-4.57,7.32c-0.47,0.82-0.73,1.42-0.45,1.9
		c0.28,0.47,0.9,0.57,1.83,0.57h0.69c1.84,0,2.61-0.43,3.55-2l5.49-9.14c1.15-1.88,1.43-1.97,2.06-1.97s0.92,0.09,2.06,1.96
		l5.51,9.16c0.93,1.58,1.69,2,3.53,2h0.69c0.93,0,1.56-0.1,1.82-0.57C385.49,193.48,385.24,192.88,384.76,192.05"/>
</g>
<g>
	<path class="st1" d="M2464.92,203c-2.19,0-4.32-0.43-6.34-1.28c-1.94-0.82-3.67-1.99-5.17-3.49c-1.49-1.49-2.66-3.24-3.49-5.17
		c-0.85-2.02-1.28-4.15-1.28-6.34v-20.41h7.78v20.41c0,2.26,0.89,4.4,2.49,6c1.6,1.6,3.74,2.49,6,2.49c2.28,0,4.4-0.89,6.02-2.49
		c1.6-1.6,2.48-3.74,2.48-6v-20.41h7.79v20.41c0,2.19-0.43,4.32-1.28,6.34c-0.82,1.92-2.01,3.67-3.5,5.17
		c-1.48,1.49-3.23,2.67-5.17,3.49C2469.25,202.57,2467.13,203,2464.92,203"/>
	<path class="st1" d="M2596.65,203c-2.53,0-4.99-0.5-7.31-1.47c-1.12-0.48-2.19-1.06-3.19-1.74c-1-0.67-1.94-1.45-2.79-2.29
		c-0.85-0.86-1.61-1.79-2.29-2.79c-0.67-1.01-1.25-2.09-1.73-3.19c-0.97-2.33-1.48-4.78-1.48-7.32c0-2.52,0.51-4.98,1.48-7.31
		c0.48-1.1,1.06-2.18,1.73-3.18c0.67-1,1.44-1.92,2.29-2.79c0.85-0.83,1.79-1.61,2.79-2.29c1-0.69,2.07-1.26,3.19-1.74
		c2.32-0.97,4.78-1.47,7.31-1.47s4.99,0.5,7.31,1.47c1.1,0.47,2.2,1.05,3.19,1.74c0.99,0.67,1.92,1.46,2.77,2.29
		c0.85,0.86,1.63,1.79,2.3,2.79c0.67,1,1.25,2.07,1.72,3.18c0.98,2.33,1.48,4.79,1.48,7.31c0,2.54-0.5,4.99-1.48,7.32
		c-0.47,1.1-1.05,2.18-1.72,3.19c-0.67,1-1.45,1.93-2.3,2.79c-0.85,0.84-1.78,1.62-2.77,2.29c-1,0.67-2.09,1.25-3.19,1.74
		C2601.65,202.5,2599.18,203,2596.65,203 M2596.65,173.22c-1.48,0-2.92,0.3-4.28,0.86c-1.31,0.55-2.48,1.34-3.5,2.35
		c-1,1.01-1.79,2.19-2.34,3.5c-0.58,1.36-0.86,2.79-0.86,4.27c0,1.49,0.28,2.93,0.86,4.29c0.55,1.29,1.34,2.47,2.34,3.5
		c1.02,1.01,2.19,1.79,3.5,2.34c1.36,0.57,2.8,0.87,4.28,0.87c1.48,0,2.92-0.31,4.27-0.87c1.32-0.55,2.49-1.33,3.5-2.34
		c1.01-1.02,1.8-2.21,2.36-3.5c0.58-1.36,0.86-2.8,0.86-4.29c0-1.48-0.28-2.91-0.86-4.27c-0.55-1.31-1.34-2.49-2.36-3.5
		c-1.01-1.01-2.18-1.8-3.5-2.35C2599.57,173.52,2598.13,173.22,2596.65,173.22"/>
	<path class="st1" d="M2536.07,167.47c-0.73-0.74-1.72-1.14-2.76-1.14h-2.18c-2.19,0-4.34,0.43-6.34,1.29
		c-1.94,0.81-3.67,1.98-5.18,3.49c-1.48,1.49-2.65,3.23-3.47,5.17c-0.85,2.01-1.29,4.15-1.29,6.34v19.51h7.78l0.01-28.01h10.67
		c1.04,0,2.03-0.4,2.76-1.13c0.73-0.74,1.13-1.72,1.13-2.76C2537.2,169.19,2536.8,168.19,2536.07,167.47"/>
	<path class="st1" d="M2500.62,195.23v-21.65h8.71v-7.26h-8.71v-9.11c0-1.04-0.41-2.03-1.13-2.76c-0.74-0.73-1.72-1.13-2.76-1.13
		c-1.04,0-2.02,0.4-2.76,1.13c-0.73,0.73-1.13,1.72-1.13,2.76v9.11h-6.58v7.26h6.58v17.28c0,9.45,4.83,12.69,16.72,11.25v-6.89
		H2500.62z"/>
	<path class="st1" d="M2573.76,187.51c0.22-1.37,0.28-2.44,0.28-3.22c0-5.21-1.71-9.72-5.06-13.35c-3.36-3.65-7.65-5.51-12.87-5.51
		c-5.49,0-10.07,1.79-13.57,5.44c-3.5,3.55-5.28,7.98-5.28,13.35c0,5.42,1.78,9.92,5.36,13.5c3.57,3.5,8.28,5.28,14.07,5.28
		c6.93,0,12.14-2.57,15.64-7.79l-6.37-3.7c-2.06,2.93-5.13,4.43-9.21,4.43c-5.81,0-10.12-2.89-11.35-8.13
		c-0.28-1.06-0.44-2.3-0.44-3.66c0-1.91,0.32-3.65,0.83-4.87c1.75-4.21,5.25-6.84,10.24-6.84c5.08,0,9.14,3,10.22,8.79h-14.65
		c-1.72,0-3.14,1.41-3.14,3.15c0,1.74,1.41,3.14,3.14,3.14H2573.76z"/>
	<path class="st1" d="M2408.14,197.69v-19.96h-8.85v24.39h4.42C2406.17,202.11,2408.14,200.14,2408.14,197.69"/>
	<path class="st1" d="M2436.07,153.32c-2.44,0-4.41,1.97-4.43,4.41v19.98h8.86v-24.39H2436.07z"/>
	<path class="st1" d="M2436.07,202.12c-0.15,0-0.31-0.01-0.46-0.03c-1.17-0.12-2.23-0.71-2.97-1.61l-32.36-39.95
		c-0.73-0.92-1.08-2.07-0.96-3.24c0.12-1.17,0.7-2.23,1.61-2.97c0.91-0.73,2.07-1.09,3.24-0.96c1.17,0.12,2.23,0.7,2.97,1.6
		l32.35,39.96c0.74,0.9,1.09,2.07,0.97,3.24c-0.12,1.16-0.71,2.23-1.61,2.97C2438.06,201.78,2437.08,202.12,2436.07,202.12"/>
</g>
<g>
	<path class="st1" d="M1544.43,201.22l6.94,17.5h-3.09l-1.67-4.29h-7.37l-1.67,4.29h-3.07l6.94-17.5H1544.43z M1542.92,204.71
		l-0.33,0.95l-2.43,6.26h5.55l-2.48-6.26L1542.92,204.71z"/>
	<rect x="1553.55" y="200.44" class="st1" width="2.65" height="18.27"/>
	<rect x="1559.89" y="200.44" class="st1" width="2.67" height="18.27"/>
	<path class="st1" d="M1568.84,203.45c-0.99,1.02-3.05,0.28-2.93-1.16c0-0.97,0.78-1.7,1.7-1.7
		C1569.12,200.5,1569.96,202.54,1568.84,203.45 M1568.95,218.71h-2.65v-12.65h2.65V218.71z"/>
	<path class="st1" d="M1582.4,206.06v12.65h-2.31l-0.19-1.7c-0.64,1.34-1.79,1.98-3.42,1.98c-2.67,0-4.06-1.82-4.06-4.72v-8.21h2.65
		v7.69c0,1.77,0.71,2.67,2.14,2.67c1.49,0,2.55-1.27,2.55-3.45v-6.9H1582.4z"/>
	<path class="st1" d="M1592.88,206.89c0.81,0.73,1.25,1.7,1.27,2.88h-2.64c-0.05-1.13-0.64-1.73-1.79-1.73
		c-1.09,0-1.68,0.62-1.68,1.47c0,0.92,0.52,1.32,2.31,1.7c3.02,0.59,4.13,1.72,4.13,3.8c0,2.51-1.92,3.97-4.63,3.97
		c-2.97,0-4.7-1.58-4.79-4.09h2.69c0.02,1.16,0.83,1.84,2.17,1.84c1.19,0,1.89-0.57,1.89-1.48c0-0.95-0.57-1.42-2.48-1.82
		c-2.73-0.57-3.96-1.65-3.96-3.68c0-1.09,0.38-2.01,1.15-2.77c0.78-0.8,1.87-1.18,3.26-1.18
		C1591.06,205.8,1592.06,206.16,1592.88,206.89"/>
	<path class="st1" d="M1404.1,149.06c-10.22,0-15.42,4.96-15.42,14.75v31.38c0,2.06,0.66,2.71,2.72,2.71h0.75
		c2.13,0,2.72-0.57,2.72-2.71v-13.96c2.06,2.51,5.43,3.76,10.04,3.76c9.7,0,14.61-5,14.61-14.87v-6.31
		C1419.52,153.88,1414.48,149.06,1404.1,149.06 M1413.28,170.17c0,6.57-2.41,8.9-9.18,8.9c-6.82,0-9.23-2.33-9.23-8.9v-6.31
		c0-6.56,2.41-8.88,9.23-8.88c6.85,0,9.18,2.24,9.18,8.88V170.17z M1440.17,149.2c-0.59-0.07-1.37-0.14-2.22-0.14
		c-8.08,0-12.18,4.15-12.18,12.3v20.24c0,2.05,0.66,2.73,2.73,2.73h0.75c2.13,0,2.72-0.59,2.72-2.73v-19.98
		c0-4.86,1.61-6.64,5.99-6.64c0.48,0,1.04,0.03,1.7,0.1l0.29,0.02c0.4,0.07,0.69,0.09,0.95,0.09c1.79,0,1.79-1.56,1.79-2.38v-0.69
		C1442.68,150.1,1442.09,149.42,1440.17,149.2 M1459.32,149.06c-9.85,0-14.87,5.01-14.87,14.87v6.31c0,10.2,5.02,14.75,16.24,14.75
		c3.38,0,6.58-0.43,9.45-1.3c1.96-0.59,2.5-1.23,2.5-2.97v-0.61c0-0.61,0-2.5-1.77-2.5c-0.31,0-0.68,0.07-1.09,0.19
		c-3.09,0.87-6.07,1.27-9.09,1.27c-7.23,0-10.06-2.27-10.06-8.08v-1.49h19.97c2.08,0,2.76-0.57,3-2.55c0.14-0.9,0.21-2.17,0.21-3.76
		C1473.81,154.07,1468.67,149.06,1459.32,149.06 M1467.89,164.13h-17.26v-1.7c0-5.2,2.83-7.74,8.64-7.74c5.79,0,8.62,2.53,8.62,7.74
		V164.13z M1514.42,149.06c-5,0-8.5,1.67-10.44,4.98c-1.84-3.31-5.32-4.98-10.41-4.98c-8.97,0-13.51,4.46-13.51,13.24v19.31
		c0,2.05,0.64,2.73,2.72,2.73h0.75c2.13,0,2.71-0.59,2.71-2.73V162.3c0-5.34,1.98-7.32,7.34-7.32c5.34,0,7.32,1.98,7.32,7.32v19.31
		c0,2.13,0.59,2.73,2.74,2.73h0.68c2.12,0,2.71-0.59,2.71-2.73V162.3c0-5.4,1.94-7.32,7.41-7.32c5.36,0,7.27,1.92,7.27,7.32v19.31
		c0,2.13,0.57,2.73,2.71,2.73h0.76c2.05,0,2.72-0.68,2.72-2.73V162.3C1527.88,153.4,1523.47,149.06,1514.42,149.06 M1548.99,149.06
		c-9.87,0-14.88,5.01-14.88,14.87v6.31c0,10.2,5.01,14.75,16.25,14.75c3.38,0,6.56-0.43,9.44-1.3c1.98-0.59,2.5-1.23,2.5-2.97v-0.61
		c0-0.61,0-2.5-1.75-2.5c-0.31,0-0.69,0.07-1.11,0.19c-3.09,0.87-6.05,1.27-9.07,1.27c-7.25,0-10.06-2.27-10.06-8.08v-1.49h19.97
		c2.06,0,2.74-0.57,2.98-2.55c0.14-0.9,0.21-2.17,0.21-3.76C1563.46,154.07,1558.33,149.06,1548.99,149.06 M1557.56,164.13h-17.26
		v-1.7c0-5.2,2.81-7.74,8.62-7.74c5.79,0,8.64,2.53,8.64,7.74V164.13z M1597.36,181.38l-6.8-11.02c-1.51-2.43-2.29-3.57-3.31-4.28
		c1.02-0.69,1.78-1.89,3.31-4.46l5.43-8.95c0.59-0.99,0.87-1.68,0.55-2.26c-0.31-0.57-1.07-0.68-2.17-0.68h-0.82
		c-2.24,0-3.21,0.56-4.15,2.38l-5.31,8.97c-1.06,1.91-1.51,2.08-2.38,2.08c-0.87,0-1.32-0.17-2.38-2.1l-5.29-8.95
		c-0.95-1.82-1.92-2.38-4.16-2.38h-0.8c-1.11,0-1.86,0.1-2.17,0.68c-0.33,0.57-0.05,1.27,0.54,2.26c0,0,3.87,6.38,4.98,8.21
		c1.13,1.84,3.73,3.9,6.78,4.46l0.63,0.1c0.52,0.09,0.94,0.16,0.94,0.64c0,0.49-0.42,0.55-0.94,0.64l-0.63,0.1
		c-3.78,0.69-6.28,3.57-7.7,5.88l-5.43,8.69c-0.56,0.97-0.87,1.68-0.54,2.25c0.33,0.56,1.07,0.68,2.17,0.68h0.81
		c2.19,0,3.1-0.51,4.21-2.38l6.52-10.86c1.37-2.24,1.7-2.34,2.45-2.34c0.75,0,1.09,0.1,2.45,2.33l6.54,10.88
		c1.11,1.87,2.01,2.38,4.2,2.38h0.82c1.11,0,1.86-0.12,2.17-0.68C1598.23,183.08,1597.93,182.37,1597.36,181.38"/>
	<path class="st1" d="M1602.08,139.06c1.15-1.13,2.53-1.72,4.15-1.72c1.61,0,3,0.59,4.15,1.72c1.15,1.15,1.72,2.53,1.72,4.15
		c0,1.63-0.57,3.02-1.72,4.16c-1.15,1.11-2.53,1.68-4.15,1.68c-1.62,0-2.98-0.57-4.13-1.7c-1.15-1.14-1.72-2.51-1.72-4.15
		C1600.38,141.59,1600.95,140.2,1602.08,139.06 M1602.81,146.64c0.95,0.94,2.08,1.4,3.42,1.4c1.34,0,2.48-0.47,3.43-1.4
		c0.95-0.95,1.41-2.12,1.41-3.44c0-1.34-0.45-2.46-1.41-3.42c-0.95-0.97-2.1-1.44-3.43-1.44c-1.34,0-2.47,0.47-3.42,1.44
		c-0.94,0.95-1.42,2.08-1.42,3.42C1601.38,144.52,1601.87,145.69,1602.81,146.64 M1606.19,144h-0.83v1.8c0,0.5-0.12,0.63-0.61,0.63
		h-0.17c-0.5,0-0.63-0.12-0.63-0.63v-4.02c0-1.25,0.56-1.79,1.8-1.79h0.78c1.51,0,2.27,0.71,2.27,2c0,0.97-0.4,1.6-1.25,1.89
		l1.01,1.94c0.24,0.47,0.16,0.61-0.38,0.61H1608c-0.56,0-0.73-0.12-0.99-0.63L1606.19,144z M1605.95,141.23
		c-0.38,0-0.59,0.21-0.59,0.59v1.01h1.08c0.68,0,0.94-0.22,0.94-0.78c0-0.57-0.22-0.82-0.87-0.82H1605.95z"/>
</g>
<g>
	<path class="st3" d="M1881.19,158.45c3.15,0,5.7,2.55,5.7,5.7l0,0.12v0.01v0.01v0v0.01v0.01l-0.01,0.11v0.01v0.01v0.01l0,0.01
		l-0.01,0.12l0,0.01v0v0.01l-0.01,0.11l0,0.01v0.01v0l0,0.01v0.01c-0.3,2.86-2.73,5.1-5.67,5.1c-3.15,0-5.7-2.55-5.7-5.7
		c0-1.86,0.89-3.52,2.28-4.56l0.01-0.01l0.01-0.01c0.07-0.05,0.14-0.1,0.21-0.15l0,0h0l0.1-0.06l0.02-0.01l0.01-0.01l0.11-0.07v0
		l0.01-0.01l0.08-0.05l0.05-0.03l0.02-0.01l0.05-0.03l0.03-0.01l0.03-0.01l0.05-0.03l0.04-0.02l0.01,0l0.05-0.03l0.05-0.03
		l0.01-0.01l0.04-0.02l0.07-0.03l0.01-0.01l0.02-0.01l0.11-0.05h0c0.07-0.03,0.14-0.06,0.22-0.09l0.04-0.02l0.01,0l0.11-0.04l0.01,0
		l0.13-0.04l0,0l0.13-0.04h0l0.01,0l0.12-0.03l0.01,0l0.01,0l0.11-0.03l0.03-0.01l0.11-0.02l0.01,0h0l0.01,0
		c0.09-0.02,0.17-0.03,0.26-0.05h0.01l0.01,0l0.12-0.02h0.01h0l0.13-0.02l0.01,0l0.03,0l0.11-0.01h0.01l0.12-0.01h0.02l0.02,0
		l0.12,0l0.01,0h0.02H1881.19z M1914,175.16c4.42,0,8,3.59,8,8c0,4.42-3.58,8-8,8c-4.42,0-8.01-3.58-8.01-8
		C1906,178.74,1909.58,175.16,1914,175.16 M1877.54,191.98c2.18,0,3.96,1.77,3.96,3.96c0,2.19-1.77,3.96-3.96,3.96
		c-2.19,0-3.96-1.77-3.96-3.96C1873.59,193.76,1875.36,191.98,1877.54,191.98 M1867.57,221.99c1.82,0,3.3,1.48,3.3,3.3
		c0,1.82-1.48,3.3-3.3,3.3c-1.82,0-3.3-1.48-3.3-3.3C1864.27,223.46,1865.74,221.99,1867.57,221.99 M1905.56,208.88
		c1.28,0,2.32,1.04,2.32,2.32c0,1.28-1.04,2.32-2.32,2.32c-1.28,0-2.32-1.04-2.32-2.32
		C1903.24,209.92,1904.28,208.88,1905.56,208.88 M1841.55,197.21c4.96,0,8.98,4.02,8.98,8.98c0,4.96-4.02,8.98-8.98,8.98
		c-4.96,0-8.98-4.02-8.98-8.98C1832.57,201.23,1836.59,197.21,1841.55,197.21 M1824.84,173.36c1.89,0,3.42,1.53,3.42,3.42
		c0,1.89-1.53,3.42-3.42,3.42c-1.89,0-3.42-1.53-3.42-3.42C1821.42,174.89,1822.95,173.36,1824.84,173.36 M1913.29,152.3
		c1.28,0,2.32,1.04,2.32,2.32c0,1.28-1.04,2.32-2.32,2.32c-1.28,0-2.32-1.04-2.32-2.32C1910.97,153.34,1912.01,152.3,1913.29,152.3
		 M1896.09,134.86c1.08,0,1.96,0.88,1.96,1.96c0,1.09-0.88,1.96-1.96,1.96c-1.09,0-1.96-0.88-1.96-1.96
		C1894.12,135.74,1895,134.86,1896.09,134.86 M1872.85,127.74c2.19,0,3.96,1.77,3.96,3.96c0,2.18-1.77,3.96-3.96,3.96
		c-2.19,0-3.96-1.77-3.96-3.96C1868.89,129.51,1870.66,127.74,1872.85,127.74 M1847.43,152.76c-0.51,0.71-1.11,1.34-1.78,1.89
		l4.94,10.23c0.78-0.18,1.58-0.28,2.42-0.28c3.65,0,6.87,1.86,8.76,4.67l9.33-3.64c-0.07-0.49-0.11-0.99-0.11-1.49
		c0-0.57,0.05-1.12,0.14-1.66l-10.27-4.21L1847.43,152.76z M1839.42,141.67c2.95,0,5.35,2.39,5.35,5.34c0,2.95-2.39,5.35-5.35,5.35
		s-5.35-2.39-5.35-5.35C1834.08,144.06,1836.47,141.67,1839.42,141.67 M1902.21,178.96l-13.54-7.86c-1.62,1.74-3.85,2.92-6.34,3.19
		l-1.58,13.8c1.55,0.63,2.87,1.71,3.8,3.08l17.09-6.07c-0.1-0.63-0.15-1.28-0.15-1.94C1901.49,181.69,1901.74,180.28,1902.21,178.96
		 M1862.33,180.07l10.46,8.86c1-0.68,2.16-1.15,3.41-1.35l1.58-13.8c-2.08-0.73-3.85-2.12-5.06-3.92l-9.31,3.65
		c0.09,0.54,0.13,1.08,0.13,1.64C1863.54,176.93,1863.11,178.6,1862.33,180.07 M1853.71,200.35l15.36-4.51
		c0.01-1.22,0.29-2.38,0.77-3.43l-10.46-8.86c-1.77,1.35-3.98,2.15-6.38,2.15c-0.48,0-0.96-0.03-1.42-0.1l-3.28,8.9
		C1850.64,195.86,1852.53,197.9,1853.71,200.35 M1870.25,200.25l-15.3,4.47c0.05,0.49,0.08,0.98,0.08,1.48
		c0,7.45-6.04,13.49-13.49,13.49c-7.45,0-13.49-6.04-13.49-13.49c0-7.45,6.04-13.49,13.49-13.49c0.84,0,1.66,0.08,2.46,0.22
		l3.28-8.9c-2.13-1.37-3.74-3.5-4.45-6l-10.29,0.59c-0.83,3.49-3.97,6.09-7.72,6.09c-4.38,0-7.93-3.55-7.93-7.93
		c0-4.38,3.55-7.93,7.93-7.93c3.43,0,6.35,2.17,7.46,5.22l10.29-0.6c0.43-2.66,1.85-4.99,3.88-6.6l-4.93-10.23
		c-0.68,0.15-1.39,0.23-2.11,0.23c-5.44,0-9.86-4.41-9.86-9.86c0-5.44,4.42-9.86,9.86-9.86c5.44,0,9.86,4.41,9.86,9.86
		c0,0.52-0.04,1.03-0.12,1.53l13.56,5.56l10.07,4.22c0.95-1.36,2.22-2.48,3.7-3.25l-3.83-14.92c-4.59-0.1-8.29-3.85-8.29-8.47
		c0-4.68,3.8-8.47,8.47-8.47c4.68,0,8.47,3.79,8.47,8.47c0,3.13-1.7,5.86-4.23,7.33l3.83,14.92c0.09,0,0.18,0,0.26,0
		c0.96,0,1.88,0.13,2.76,0.38l7.23-13.27c-0.98-1.13-1.57-2.61-1.57-4.23c0-3.57,2.9-6.48,6.48-6.48c3.58,0,6.47,2.9,6.47,6.48
		c0,3.58-2.9,6.48-6.47,6.48c-0.3,0-0.6-0.02-0.89-0.06l-7.23,13.27c0.84,0.75,1.56,1.63,2.12,2.62l16.39-4.87
		c0.18-3.6,3.17-6.47,6.82-6.47c3.77,0,6.83,3.06,6.83,6.83c0,3.77-3.06,6.83-6.83,6.83c-2.27,0-4.28-1.11-5.52-2.81l-16.39,4.87
		c0.01,0.21,0.02,0.43,0.02,0.64c0,1.04-0.16,2.05-0.45,3l13.55,7.86c2.29-2.67,5.7-4.37,9.5-4.37c6.91,0,12.51,5.6,12.51,12.52
		c0,6.91-5.6,12.52-12.51,12.52c-4.65,0-8.7-2.53-10.86-6.29l-17.15,6.01c0.01,0.18,0.02,0.36,0.02,0.54c0,0.65-0.07,1.29-0.21,1.9
		l15.2,8.28c1.21-1.08,2.81-1.74,4.56-1.74c3.77,0,6.83,3.06,6.83,6.83c0,3.78-3.06,6.83-6.83,6.83c-3.77,0-6.83-3.06-6.83-6.83
		c0-0.37,0.03-0.72,0.09-1.07l-15.2-8.28c-1.54,1.58-3.69,2.56-6.07,2.56c-0.16,0-0.31-0.01-0.46-0.01l-4.95,14.55
		c1.96,1.42,3.24,3.73,3.24,6.33c0,4.31-3.5,7.81-7.81,7.81c-4.31,0-7.81-3.5-7.81-7.81c0-4.31,3.5-7.81,7.81-7.81
		c0.08,0,0.16,0,0.24,0l4.95-14.55C1871.74,202.23,1870.88,201.32,1870.25,200.25 M1853,169.12c3.33,0,6.03,2.71,6.03,6.04
		c0,3.33-2.7,6.03-6.03,6.03c-3.33,0-6.04-2.7-6.04-6.03C1846.96,171.83,1849.66,169.12,1853,169.12"/>
	<path class="st1" d="M2179.12,174.89l-9.8-13.62h6.91l6.39,9.12l6.39-9.12h6.76l-9.8,13.47l10.22,14.2h-6.92l-6.81-9.69l-6.76,9.69
		h-6.76L2179.12,174.89z M2156.48,150.99h6.81v6.03h-6.81V150.99z M2156.75,161.26h6.34v27.66h-6.34V161.26z M2134.74,161.26h6.34
		v6.24c0.87-2.09,2.11-3.77,3.72-5.03c1.61-1.26,3.63-1.83,6.08-1.73v6.71h-0.37c-1.4,0-2.67,0.23-3.82,0.68
		c-1.15,0.45-2.15,1.14-2.99,2.04c-0.84,0.91-1.49,2.05-1.94,3.43c-0.46,1.38-0.68,2.98-0.68,4.8v10.53h-6.34V161.26z
		 M2122.53,189.4c-1.15,0-2.22-0.14-3.2-0.42c-0.98-0.28-1.83-0.74-2.54-1.36c-0.72-0.63-1.27-1.46-1.65-2.49
		c-0.38-1.03-0.58-2.31-0.58-3.85v-14.56h-3.51v-5.45h3.51v-7.6h6.34v7.6h7.44v5.45h-7.44v13.57c0,1.22,0.3,2.1,0.89,2.65
		c0.59,0.54,1.43,0.81,2.52,0.81c1.36,0,2.67-0.32,3.93-0.94v5.18c-0.8,0.45-1.66,0.81-2.57,1.05
		C2124.77,189.28,2123.72,189.4,2122.53,189.4 M2094.29,189.56c-1.99,0-3.85-0.35-5.58-1.05c-1.73-0.7-3.23-1.68-4.51-2.94
		c-1.27-1.25-2.28-2.76-3.01-4.53c-0.73-1.77-1.1-3.71-1.1-5.84v-0.11c0-1.99,0.33-3.86,1-5.6c0.66-1.75,1.6-3.28,2.8-4.58
		c1.2-1.31,2.63-2.34,4.27-3.09c1.64-0.75,3.46-1.13,5.45-1.13c2.2,0,4.13,0.4,5.79,1.21c1.66,0.8,3.04,1.88,4.14,3.25
		c1.1,1.36,1.93,2.94,2.49,4.74c0.56,1.8,0.84,3.69,0.84,5.69c0,0.28-0.01,0.57-0.03,0.86c-0.02,0.3-0.05,0.6-0.08,0.92h-20.33
		c0.35,2.27,1.25,4.01,2.7,5.21c1.45,1.2,3.2,1.81,5.26,1.81c1.57,0,2.94-0.28,4.09-0.84c1.15-0.56,2.29-1.38,3.41-2.46l3.72,3.3
		c-1.33,1.57-2.91,2.83-4.74,3.77C2099.04,189.08,2096.84,189.56,2094.29,189.56 M2100.58,173.15c-0.1-1.01-0.33-1.96-0.68-2.85
		c-0.35-0.89-0.82-1.66-1.42-2.31c-0.59-0.64-1.3-1.16-2.12-1.54c-0.82-0.38-1.76-0.58-2.8-0.58c-1.96,0-3.57,0.67-4.84,2.02
		c-1.27,1.35-2.05,3.1-2.33,5.26H2100.58z M2031.84,161.26h6.34v4.19c0.46-0.63,0.94-1.22,1.47-1.78c0.52-0.56,1.13-1.07,1.81-1.52
		c0.68-0.46,1.45-0.81,2.31-1.08c0.86-0.26,1.81-0.39,2.86-0.39c1.99,0,3.68,0.45,5.06,1.34c1.38,0.89,2.44,2.07,3.17,3.54
		c1.12-1.47,2.44-2.65,3.95-3.54c1.52-0.89,3.33-1.34,5.42-1.34c3.04,0,5.42,0.92,7.13,2.75c1.71,1.83,2.57,4.45,2.57,7.83v17.66
		h-6.34v-15.72c0-2.2-0.49-3.88-1.47-5.03c-0.98-1.15-2.36-1.73-4.14-1.73c-1.75,0-3.17,0.58-4.27,1.75
		c-1.1,1.17-1.65,2.87-1.65,5.11v15.61h-6.34v-15.77c0-2.16-0.49-3.82-1.47-4.98c-0.98-1.15-2.36-1.73-4.14-1.73
		s-3.21,0.61-4.29,1.83c-1.08,1.22-1.63,2.92-1.63,5.08v15.56h-6.34V161.26z M2016.96,150.99h6.81v6.03h-6.81V150.99z
		 M2017.23,161.26h6.34v27.66h-6.34V161.26z M2000.15,189.45c-1.99,0-4.01-0.35-6.05-1.05c-2.04-0.7-3.94-1.73-5.68-3.09l2.83-4.3
		c1.5,1.12,3.03,1.97,4.58,2.54c1.55,0.58,3.05,0.86,4.48,0.86c1.36,0,2.42-0.27,3.17-0.81c0.75-0.54,1.12-1.27,1.12-2.18v-0.1
		c0-0.52-0.17-0.98-0.5-1.36c-0.33-0.39-0.78-0.72-1.36-0.99c-0.58-0.28-1.24-0.54-1.99-0.79c-0.75-0.24-1.53-0.49-2.33-0.73
		c-1.01-0.28-2.04-0.61-3.07-0.99c-1.03-0.39-1.96-0.88-2.78-1.49c-0.82-0.61-1.49-1.37-2.02-2.28c-0.53-0.91-0.79-2.03-0.79-3.36
		v-0.1c0-1.29,0.25-2.46,0.76-3.51c0.51-1.05,1.21-1.94,2.1-2.67c0.89-0.73,1.94-1.29,3.14-1.68c1.21-0.38,2.49-0.58,3.85-0.58
		c1.75,0,3.51,0.28,5.29,0.84c1.78,0.56,3.41,1.33,4.87,2.3l-2.51,4.51c-1.33-0.8-2.67-1.44-4.03-1.91c-1.36-0.47-2.62-0.7-3.77-0.7
		c-1.22,0-2.17,0.26-2.85,0.78c-0.68,0.53-1.02,1.19-1.02,1.99v0.11c0,0.49,0.17,0.92,0.52,1.28c0.35,0.37,0.81,0.7,1.39,1
		c0.58,0.3,1.24,0.58,1.99,0.84c0.75,0.26,1.53,0.51,2.33,0.76c1.01,0.32,2.02,0.68,3.04,1.1c1.01,0.42,1.93,0.94,2.75,1.55
		c0.82,0.61,1.49,1.35,2.02,2.23c0.52,0.87,0.79,1.94,0.79,3.2v0.1c0,1.47-0.26,2.74-0.79,3.83c-0.52,1.08-1.25,1.98-2.17,2.7
		c-0.93,0.72-2.02,1.26-3.28,1.62C2002.92,189.27,2001.58,189.45,2000.15,189.45 M1963,151.99h5.97l16.13,36.94h-6.81l-3.72-8.86
		h-17.34l-3.77,8.86h-6.6L1963,151.99z M1972.22,174.36l-6.34-14.67l-6.29,14.67H1972.22z"/>
</g>
<g id="XMLID_00000175283566651165606770000014073049230718734738_">
	<g>
		<g>
			<g id="XMLID_00000072991164817283815700000007342282051939481504_">
				<g>
					<g>
						<path class="st1" d="M617.33,223.92c-4.41,0-8.41-2.44-10.44-6.38c-0.01-0.03-0.03-0.05-0.04-0.08l0-0.01l0,0v0l0,0
							l-25.64-52.93l-16.57,52.35l0,0v0l-0.04,0.12l0,0.01l0,0.01c-1.37,4.15-5.17,6.91-9.48,6.91c-5.5,0-9.97-4.51-9.97-10.04
							c0-1.07,0.17-2.12,0.49-3.13l14.59-48.87c0.02-0.05,0.03-0.1,0.05-0.15c2.04-5.92,7.59-9.9,13.82-9.9
							c1.12,0,2.24,0.13,3.32,0.39l3.02-9.52c1.93-6.15,7.55-10.28,13.96-10.28c6.41,0,12.18,4.32,14.03,10.49l20.07,65.34
							c0.42,1.23,0.63,2.52,0.63,3.83C629.1,218.6,623.82,223.92,617.33,223.92 M613.41,214.16c0.77,1.47,2.27,2.38,3.93,2.38
							c2.45,0,4.44-2,4.44-4.47c0-0.5-0.08-1-0.24-1.47c-0.01-0.01-0.01-0.03-0.02-0.05c-0.01-0.02-0.01-0.05-0.03-0.08l-20.1-65.42
							c-0.93-3.11-3.81-5.26-7.01-5.26c-3.2,0-6,2.06-6.97,5.13l-3.42,10.79c1.23,1.14,2.27,2.5,3.05,4.01
							c0.02,0.03,0.04,0.06,0.05,0.1c0.09,0.17,0.17,0.35,0.25,0.52L613.41,214.16z M567.21,164.08l-14.58,48.84
							c-0.01,0.04-0.02,0.07-0.03,0.11c-0.09,0.27-0.14,0.56-0.14,0.85c0,1.47,1.18,2.66,2.64,2.66c1.14,0,2.14-0.73,2.5-1.81
							l0.03-0.1l17.51-55.33c-0.36-0.05-0.71-0.08-1.08-0.08C571,159.21,568.25,161.17,567.21,164.08z"/>
					</g>
				</g>
			</g>
			<g>
				<path class="st1" d="M653.62,199l15.39-42.94c0.81-2.37,2.06-3.71,4.27-3.71c2.21,0,3.61,1.33,4.42,3.71L692.87,199
					c0.15,0.44,0.29,0.96,0.29,1.48c0,1.85-1.4,3.04-3.09,3.04c-1.47,0-2.65-0.82-3.17-2.37l-3.39-9.71h-20.55l-3.39,9.71
					c-0.52,1.56-1.69,2.37-3.17,2.37c-1.69,0-3.09-1.19-3.09-3.04C653.33,199.97,653.47,199.45,653.62,199z M681.38,185.36
					l-7.95-22.91h-0.22l-8.1,22.91H681.38z"/>
				<path class="st1" d="M709.29,203.52c-6.33,0-8.62-3.11-8.62-9.49v-38.34c0-2.08,1.33-3.34,3.09-3.34s3.09,1.26,3.09,3.34v37.97
					c0,2.97,0.96,4.08,3.39,4.08c1.77,0,2.87,1.19,2.87,2.89c0,1.71-1.1,2.89-3.17,2.89H709.29z"/>
				<path class="st1" d="M748.25,200.19c0,2.08-1.33,3.34-3.09,3.34s-3.09-1.26-3.09-3.34v-1.04h-0.07
					c-1.69,2.74-4.93,4.82-9.72,4.82c-7.66,0-12.15-5.27-12.15-13.35V170.6c0-2.08,1.33-3.34,3.09-3.34s3.09,1.26,3.09,3.34v18.54
					c0,5.71,2.5,9.05,7.81,9.05c4.79,0,7.95-3.41,7.95-8.68V170.6c0-2.08,1.33-3.34,3.09-3.34s3.09,1.26,3.09,3.34V200.19z"/>
				<path class="st1" d="M759.58,200.19V170.6c0-2.08,1.33-3.34,3.09-3.34c1.77,0,3.09,1.26,3.09,3.34v1.63h0.07
					c1.47-3.19,4.71-5.41,9.06-5.41c2.43,0,4.05,0.59,5.23,1.26c1.25,0.67,1.77,1.63,1.77,2.67c0,1.78-1.25,3.11-3.09,3.11
					c-0.44,0-1.03-0.15-1.55-0.37c-1.33-0.52-2.58-0.89-4.05-0.89c-5.3,0-7.44,4.45-7.44,10.38v17.2c0,2.08-1.33,3.34-3.09,3.34
					C760.91,203.52,759.58,202.26,759.58,200.19z"/>
				<path class="st1" d="M815.92,200.56c0,1.71-1.33,2.97-3.17,2.97c-1.1,0-1.99-0.52-2.72-1.56l-1.4-2.22h-0.07
					c-2.36,2.67-5.67,4.23-10.82,4.23c-7.88,0-12.45-3.93-12.45-10.68c0-7.34,5.01-10.98,13.77-10.98h8.03
					c0.29,0,0.44-0.15,0.44-0.44v-1.71c0-4.97-2.28-7.79-8.47-7.79c-2.72,0-5.52,0.89-7.22,1.78c-0.59,0.3-1.25,0.52-1.77,0.52
					c-1.62,0-2.65-1.04-2.65-2.67c0-0.96,0.44-1.93,1.47-2.52c2.21-1.48,5.89-2.67,10.75-2.67c9.43,0,13.84,4.52,13.84,13.27v12.76
					c0,1.85,0.15,2.6,0.66,3.63l1.25,2.3C815.7,199.3,815.92,199.97,815.92,200.56z M807.52,191.66v-3.93c0-0.3-0.15-0.44-0.44-0.44
					h-7.07c-6.04,0-8.76,1.78-8.76,5.78c0,3.71,2.65,5.56,7.36,5.56C804.06,198.63,807.52,196.03,807.52,191.66z"/>
			</g>
		</g>
	</g>
</g>
<line class="st4" x1="482.14" y1="149.06" x2="482.14" y2="214.8"/>
<line class="st4" x1="896.5" y1="149.06" x2="896.5" y2="214.8"/>
<line class="st4" x1="1276.78" y1="149.06" x2="1276.78" y2="214.8"/>
<line class="st4" x1="1724.43" y1="149.06" x2="1724.43" y2="214.8"/>
<line class="st4" x1="2290.33" y1="149.06" x2="2290.33" y2="214.8"/>
</svg>
